<svg width="32" height="30" viewBox="0 0 32 30" fill="none" xmlns="http://www.w3.org/2000/svg">
<g clip-path="url(#clip0_345_87)">
<mask id="mask0_345_87" style="mask-type:luminance" maskUnits="userSpaceOnUse" x="0" y="0" width="32" height="30">
<path d="M0 0.263184H32V29.7369H0V0.263184Z" fill="white"/>
</mask>
<g mask="url(#mask0_345_87)">
<path d="M12 11.3158C12 10.6644 12.281 10.0396 12.781 9.57901C13.2811 9.11839 13.9594 8.85962 14.6667 8.85962V13.7719C13.9594 13.7719 13.2811 13.5131 12.781 13.0525C12.281 12.5919 12 11.9672 12 11.3158ZM20 18.6842C20 19.3356 19.719 19.9603 19.219 20.4209C18.7189 20.8815 18.0406 21.1403 17.3333 21.1403V16.228C18.0406 16.228 18.7189 16.4868 19.219 16.9474C19.719 17.408 20 18.0328 20 18.6842Z" fill="#1DBFDC"/>
<path fill-rule="evenodd" clip-rule="evenodd" d="M32 0.263184H0V29.7369H32V0.263184ZM16 3.94739C16.3536 3.94739 16.6928 4.07678 16.9428 4.30709C17.1929 4.5374 17.3333 4.84976 17.3333 5.17546V6.40353C18.4364 6.40364 19.5123 6.71864 20.413 7.30519C21.3136 7.89173 21.9948 8.72098 22.3627 9.6788C22.473 9.98415 22.4488 10.3172 22.2952 10.6063C22.1417 10.8954 21.8711 11.1174 21.5416 11.2246C21.2122 11.3317 20.8502 11.3155 20.5336 11.1794C20.217 11.0433 19.971 10.7981 19.8487 10.4967C19.6645 10.0178 19.3238 9.60329 18.8734 9.31013C18.4229 9.01697 17.8849 8.8596 17.3333 8.85967V13.772C18.7478 13.772 20.1044 14.2895 21.1046 15.2107C22.1048 16.132 22.6667 17.3814 22.6667 18.6842C22.6667 19.9871 22.1048 21.2365 21.1046 22.1577C20.1044 23.079 18.7478 23.5965 17.3333 23.5965V24.8246C17.3333 25.1503 17.1929 25.4627 16.9428 25.693C16.6928 25.9233 16.3536 26.0527 16 26.0527C15.6464 26.0527 15.3072 25.9233 15.0572 25.693C14.8071 25.4627 14.6667 25.1503 14.6667 24.8246V23.5965C13.5636 23.5964 12.4877 23.2814 11.587 22.6949C10.6864 22.1083 10.0052 21.2791 9.63733 20.3213C9.527 20.0159 9.55121 19.6829 9.70475 19.3938C9.8583 19.1047 10.1289 18.8827 10.4584 18.7755C10.7878 18.6683 11.1498 18.6845 11.4664 18.8206C11.783 18.9568 12.029 19.2019 12.1513 19.5034C12.3355 19.9822 12.6762 20.3968 13.1266 20.6899C13.5771 20.9831 14.1151 21.1404 14.6667 21.1404V16.2281C13.2522 16.2281 11.8956 15.7106 10.8954 14.7893C9.89524 13.8681 9.33333 12.6186 9.33333 11.3158C9.33333 10.013 9.89524 8.76354 10.8954 7.84231C11.8956 6.92108 13.2522 6.40353 14.6667 6.40353V5.17546C14.6667 4.84976 14.8071 4.5374 15.0572 4.30709C15.3072 4.07678 15.6464 3.94739 16 3.94739Z" fill="#1DBFDC"/>
</g>
</g>
<defs>
<clipPath id="clip0_345_87">
<rect y="0.263184" width="32" height="29.4737" rx="12" fill="white"/>
</clipPath>
</defs>
</svg>
