<svg width="564" height="340" viewBox="0 0 564 340" fill="none" xmlns="http://www.w3.org/2000/svg">
<g clip-path="url(#clip0_693_448)">
<path d="M508.745 140.26H177.843C176.438 140.26 175.09 141.036 174.097 142.416C173.103 143.797 172.545 145.669 172.545 147.622C172.545 149.574 173.103 151.447 174.097 152.828C175.09 154.208 176.438 154.984 177.843 154.984H187.216V331.104C187.216 333.057 187.774 334.929 188.767 336.31C189.761 337.69 191.108 338.466 192.513 338.466C193.918 338.466 195.266 337.69 196.259 336.31C197.253 334.929 197.811 333.057 197.811 331.104L197.892 154.984H463.474L487.961 331.104C487.961 333.057 488.52 334.929 489.513 336.31C490.507 337.69 491.854 338.466 493.259 338.466C494.664 338.466 496.012 337.69 497.005 336.31C497.999 334.929 498.557 333.057 498.557 331.104L500.098 154.984H508.745C510.15 154.984 511.497 154.208 512.491 152.828C513.484 151.447 514.042 149.574 514.042 147.622C514.042 145.669 513.484 143.797 512.491 142.416C511.497 141.036 510.15 140.26 508.745 140.26Z" fill="#CCCCCC"/>
<path d="M235.2 107.456V138.632H178.994C177.521 138.703 176.052 138.371 174.672 137.653C173.291 136.936 172.026 135.847 170.948 134.45C169.87 133.053 169.001 131.374 168.39 129.51C167.779 127.647 167.438 125.634 167.387 123.587C167.335 121.539 167.575 119.498 168.091 117.58C168.608 115.662 169.391 113.903 170.396 112.405C171.402 110.908 172.609 109.7 173.951 108.85C175.292 108.001 176.74 107.528 178.214 107.456C178.474 107.444 178.734 107.444 178.994 107.456L235.2 107.456Z" fill="#F2F2F2"/>
<path d="M236.581 138.392C236.581 138.71 236.49 139.015 236.328 139.24C236.166 139.465 235.947 139.591 235.718 139.591H177.993C174.859 139.588 171.855 137.856 169.64 134.776C167.424 131.695 166.18 127.519 166.18 123.164C166.18 118.809 167.424 114.633 169.64 111.552C171.855 108.472 174.859 106.74 177.993 106.737H235.718C235.832 106.736 235.944 106.767 236.049 106.827C236.154 106.887 236.249 106.976 236.33 107.087C236.41 107.198 236.474 107.331 236.517 107.476C236.561 107.622 236.583 107.778 236.583 107.936C236.583 108.094 236.561 108.25 236.517 108.395C236.474 108.541 236.41 108.673 236.33 108.785C236.249 108.896 236.154 108.985 236.049 109.045C235.944 109.105 235.832 109.135 235.718 109.135H177.993C175.318 109.141 172.754 110.621 170.864 113.251C168.974 115.882 167.913 119.447 167.913 123.164C167.913 126.881 168.974 130.446 170.864 133.077C172.754 135.707 175.318 137.188 177.993 137.193H235.718C235.947 137.193 236.166 137.32 236.328 137.545C236.49 137.769 236.581 138.074 236.581 138.392Z" fill="#CC8F99"/>
<path d="M235.2 114.651H174.8C174.755 114.651 174.711 114.626 174.678 114.582C174.646 114.537 174.627 114.477 174.627 114.413C174.627 114.35 174.644 114.289 174.676 114.243C174.708 114.198 174.752 114.172 174.797 114.171H235.2C235.246 114.172 235.289 114.197 235.321 114.242C235.353 114.287 235.371 114.348 235.371 114.411C235.371 114.474 235.353 114.535 235.321 114.58C235.289 114.625 235.246 114.65 235.2 114.651Z" fill="#CCCCCC"/>
<path d="M235.2 120.406H174.8C174.755 120.407 174.711 120.382 174.678 120.337C174.646 120.293 174.627 120.232 174.627 120.169C174.627 120.105 174.644 120.044 174.676 119.999C174.708 119.953 174.752 119.927 174.797 119.927H235.2C235.246 119.927 235.289 119.953 235.321 119.998C235.353 120.043 235.371 120.103 235.371 120.166C235.371 120.23 235.353 120.29 235.321 120.335C235.289 120.38 235.246 120.406 235.2 120.406Z" fill="#CCCCCC"/>
<path d="M235.2 126.162H174.8C174.755 126.162 174.711 126.137 174.678 126.093C174.646 126.048 174.627 125.988 174.627 125.924C174.627 125.861 174.644 125.8 174.676 125.754C174.708 125.709 174.752 125.683 174.797 125.682H235.2C235.246 125.683 235.289 125.708 235.321 125.753C235.353 125.798 235.371 125.859 235.371 125.922C235.371 125.985 235.353 126.046 235.321 126.091C235.289 126.136 235.246 126.161 235.2 126.162Z" fill="#CCCCCC"/>
<path d="M235.2 131.917H174.8C174.755 131.918 174.711 131.893 174.678 131.848C174.646 131.804 174.627 131.743 174.627 131.68C174.627 131.616 174.644 131.555 174.676 131.51C174.708 131.464 174.752 131.438 174.797 131.438H235.2C235.246 131.438 235.289 131.464 235.321 131.509C235.353 131.554 235.371 131.614 235.371 131.677C235.371 131.741 235.353 131.801 235.321 131.846C235.289 131.891 235.246 131.917 235.2 131.917Z" fill="#CCCCCC"/>
<path d="M224.605 74.6108V105.787H168.399C165.424 105.93 162.529 104.426 160.353 101.604C158.176 98.7828 156.895 94.8751 156.791 90.7409C156.688 86.6068 157.77 82.5848 159.801 79.5598C161.831 76.5348 164.643 74.7546 167.618 74.6108C167.878 74.5982 168.138 74.5982 168.399 74.6108H224.605Z" fill="#F2F2F2"/>
<path d="M225.985 105.547C225.985 105.865 225.894 106.17 225.733 106.394C225.571 106.619 225.351 106.746 225.123 106.746H167.398C164.262 106.746 161.256 105.015 159.039 101.934C156.822 98.8537 155.576 94.6753 155.576 90.3186C155.576 85.9618 156.822 81.7835 159.039 78.7028C161.256 75.6221 164.262 73.8914 167.398 73.8914H225.123C225.236 73.8914 225.348 73.9224 225.453 73.9826C225.557 74.0429 225.653 74.1312 225.733 74.2425C225.813 74.3539 225.876 74.4861 225.92 74.6316C225.963 74.777 225.985 74.933 225.985 75.0904C225.985 75.2479 225.963 75.4038 225.92 75.5493C225.876 75.6947 225.813 75.8269 225.733 75.9383C225.653 76.0496 225.557 76.1379 225.453 76.1982C225.348 76.2585 225.236 76.2895 225.123 76.2895H167.398C164.72 76.2895 162.152 77.7676 160.259 80.3985C158.366 83.0295 157.302 86.5978 157.302 90.3186C157.302 94.0393 158.366 97.6077 160.259 100.239C162.152 102.87 164.72 104.348 167.398 104.348H225.123C225.351 104.348 225.571 104.474 225.733 104.699C225.894 104.924 225.985 105.229 225.985 105.547Z" fill="#3F3D56"/>
<path d="M224.605 81.8052H164.205C164.159 81.8055 164.115 81.7807 164.083 81.7362C164.05 81.6916 164.032 81.631 164.032 81.5676C164.031 81.5041 164.049 81.443 164.081 81.3977C164.113 81.3523 164.156 81.3264 164.202 81.3256H224.605C224.65 81.3262 224.694 81.3517 224.726 81.3966C224.758 81.4415 224.776 81.5022 224.776 81.5654C224.776 81.6285 224.758 81.6892 224.726 81.7341C224.694 81.779 224.65 81.8045 224.605 81.8052Z" fill="#CCCCCC"/>
<path d="M224.605 87.5607H164.205C164.159 87.561 164.115 87.5362 164.083 87.4917C164.05 87.4472 164.032 87.3865 164.032 87.3231C164.031 87.2597 164.049 87.1986 164.081 87.1532C164.113 87.1078 164.156 87.0819 164.202 87.0811H224.605C224.65 87.0817 224.694 87.1072 224.726 87.1522C224.758 87.1971 224.776 87.2577 224.776 87.3209C224.776 87.3841 224.758 87.4447 224.726 87.4896C224.694 87.5345 224.65 87.5601 224.605 87.5607Z" fill="#CCCCCC"/>
<path d="M224.605 93.3163H164.205C164.159 93.3166 164.115 93.2918 164.083 93.2473C164.05 93.2027 164.032 93.1421 164.032 93.0787C164.031 93.0152 164.049 92.9542 164.081 92.9088C164.113 92.8634 164.156 92.8375 164.202 92.8367H224.605C224.65 92.8373 224.694 92.8628 224.726 92.9077C224.758 92.9526 224.776 93.0133 224.776 93.0765C224.776 93.1397 224.758 93.2003 224.726 93.2452C224.694 93.2901 224.65 93.3156 224.605 93.3163Z" fill="#CCCCCC"/>
<path d="M224.605 99.0718H164.205C164.159 99.0721 164.115 99.0473 164.083 99.0028C164.05 98.9582 164.032 98.8976 164.032 98.8342C164.031 98.7707 164.049 98.7096 164.081 98.6643C164.113 98.6189 164.156 98.593 164.202 98.5922H224.605C224.65 98.5928 224.694 98.6183 224.726 98.6632C224.758 98.7081 224.776 98.7688 224.776 98.832C224.776 98.8952 224.758 98.9558 224.726 99.0007C224.694 99.0456 224.65 99.0711 224.605 99.0718Z" fill="#CCCCCC"/>
<path d="M289.99 250.578V223.395C289.99 222.194 289.646 221.041 289.035 220.192C288.424 219.342 287.594 218.865 286.73 218.865H212.562C211.697 218.865 210.868 219.342 210.257 220.192C209.646 221.041 209.302 222.194 209.302 223.395V250.578H289.99Z" fill="#CCCCCC"/>
<path d="M289.99 260.771H209.302V295.882H289.99V260.771Z" fill="#CCCCCC"/>
<path d="M209.302 306.075V333.258C209.302 334.46 209.646 335.612 210.257 336.461C210.868 337.311 211.697 337.788 212.562 337.788H286.73C287.594 337.788 288.424 337.311 289.035 336.461C289.646 335.612 289.99 334.46 289.99 333.258V306.075H209.302Z" fill="#CCCCCC"/>
<path d="M249.238 239.252C250.589 239.252 251.683 237.73 251.683 235.854C251.683 233.977 250.589 232.456 249.238 232.456C247.888 232.456 246.793 233.977 246.793 235.854C246.793 237.73 247.888 239.252 249.238 239.252Z" fill="white"/>
<path d="M249.238 284.556C250.589 284.556 251.683 283.035 251.683 281.158C251.683 279.282 250.589 277.76 249.238 277.76C247.888 277.76 246.793 279.282 246.793 281.158C246.793 283.035 247.888 284.556 249.238 284.556Z" fill="white"/>
<path d="M249.369 328.901C250.72 328.901 251.814 327.38 251.814 325.503C251.814 323.626 250.72 322.105 249.369 322.105C248.019 322.105 246.924 323.626 246.924 325.503C246.924 327.38 248.019 328.901 249.369 328.901Z" fill="white"/>
<path d="M280.842 187.871V219.047H224.636C221.662 219.188 218.77 217.682 216.595 214.861C214.419 212.04 213.139 208.134 213.036 204.002C212.932 199.869 214.014 195.849 216.042 192.824C218.071 189.8 220.881 188.018 223.854 187.871C224.115 187.859 224.375 187.859 224.636 187.871H280.842Z" fill="#F2F2F2"/>
<path d="M282.223 218.807C282.222 219.125 282.132 219.43 281.97 219.655C281.808 219.88 281.588 220.006 281.36 220.006H223.635C220.5 220.007 217.494 218.279 215.276 215.2C213.059 212.121 211.812 207.945 211.811 203.589C211.809 199.233 213.052 195.055 215.266 191.972C217.481 188.89 220.486 187.156 223.62 187.152H281.36C281.473 187.151 281.586 187.182 281.691 187.242C281.796 187.302 281.891 187.391 281.971 187.502C282.052 187.613 282.115 187.746 282.159 187.891C282.202 188.037 282.225 188.193 282.225 188.351C282.225 188.509 282.202 188.665 282.159 188.811C282.115 188.956 282.052 189.089 281.971 189.2C281.891 189.311 281.796 189.4 281.691 189.46C281.586 189.52 281.473 189.55 281.36 189.55H223.635C220.959 189.555 218.395 191.035 216.505 193.665C214.614 196.296 213.552 199.862 213.552 203.579C213.552 207.297 214.614 210.862 216.505 213.493C218.395 216.123 220.959 217.603 223.635 217.608H281.36C281.588 217.608 281.808 217.735 281.97 217.96C282.132 218.184 282.222 218.489 282.223 218.807Z" fill="#3F3D56"/>
<path d="M280.842 195.066H220.442C220.396 195.066 220.353 195.041 220.32 194.997C220.287 194.952 220.269 194.892 220.269 194.828C220.268 194.765 220.286 194.704 220.318 194.658C220.35 194.613 220.393 194.587 220.439 194.586H280.842C280.887 194.587 280.931 194.612 280.963 194.657C280.995 194.702 281.013 194.763 281.013 194.826C281.013 194.889 280.995 194.95 280.963 194.995C280.931 195.039 280.887 195.065 280.842 195.066Z" fill="#CCCCCC"/>
<path d="M280.842 200.821H220.442C220.396 200.822 220.353 200.797 220.32 200.752C220.287 200.708 220.269 200.647 220.269 200.584C220.268 200.52 220.286 200.459 220.318 200.414C220.35 200.368 220.393 200.342 220.439 200.342H280.842C280.887 200.342 280.931 200.368 280.963 200.413C280.995 200.458 281.013 200.518 281.013 200.581C281.013 200.645 280.995 200.705 280.963 200.75C280.931 200.795 280.887 200.821 280.842 200.821Z" fill="#CCCCCC"/>
<path d="M280.842 206.577H220.442C220.396 206.577 220.353 206.552 220.32 206.508C220.287 206.463 220.269 206.403 220.269 206.339C220.268 206.276 220.286 206.215 220.318 206.169C220.35 206.124 220.393 206.098 220.439 206.097H280.842C280.887 206.098 280.931 206.123 280.963 206.168C280.995 206.213 281.013 206.274 281.013 206.337C281.013 206.4 280.995 206.461 280.963 206.506C280.931 206.551 280.887 206.576 280.842 206.577Z" fill="#CCCCCC"/>
<path d="M280.842 212.332H220.442C220.396 212.332 220.353 212.308 220.32 212.263C220.287 212.219 220.269 212.158 220.269 212.095C220.268 212.031 220.286 211.97 220.318 211.925C220.35 211.879 220.393 211.853 220.439 211.853H280.842C280.887 211.853 280.931 211.879 280.963 211.924C280.995 211.969 281.013 212.029 281.013 212.092C281.013 212.156 280.995 212.216 280.963 212.261C280.931 212.306 280.887 212.332 280.842 212.332Z" fill="#CCCCCC"/>
<path d="M214.831 64.2106H189.223C188.98 64.2104 188.74 64.2879 188.522 64.4372L182.058 68.9336C181.846 69.0592 181.664 69.269 181.537 69.5369C181.409 69.8047 181.341 70.1188 181.341 70.4399C181.341 70.7611 181.409 71.0751 181.537 71.343C181.664 71.6108 181.846 71.8206 182.058 71.9463L188.522 76.4427C188.74 76.592 188.98 76.6695 189.223 76.6692H214.831C215.184 76.6976 215.53 76.5316 215.796 76.2073C216.061 75.8829 216.224 75.4263 216.249 74.9363V65.9435C216.224 65.4535 216.061 64.9969 215.796 64.6726C215.53 64.3482 215.184 64.1823 214.831 64.2106Z" fill="#3F3D56"/>
<path d="M216.249 65.9436V74.9364C216.224 75.4264 216.061 75.883 215.796 76.2074C215.53 76.5317 215.184 76.6977 214.831 76.6693H209.729V64.2106H214.831C215.184 64.1823 215.53 64.3482 215.796 64.6726C216.061 64.9969 216.224 65.4536 216.249 65.9436Z" fill="#CC8F99"/>
<path d="M61.3017 240.422C64.5992 242.032 68.1395 242.436 71.5817 241.593C75.0239 240.751 78.252 238.69 80.9548 235.611C87.8384 227.582 89.9966 214.355 91.7527 202.107C93.4841 190.031 95.2154 177.956 96.9468 165.88L86.0724 176.285C78.2523 183.768 70.2559 191.49 64.8412 202.329C59.4266 213.167 57.0631 227.963 61.4136 239.691" fill="#E6E6E6"/>
<path d="M62.2313 284.282C61.1307 273.141 59.9989 261.857 60.771 250.597C61.4566 240.596 63.6521 230.829 68.1218 222.82C70.4943 218.577 73.3812 214.942 76.6527 212.078C77.5058 211.329 78.291 213.208 77.4416 213.953C71.781 218.925 67.4027 226.266 64.938 234.918C62.2158 244.54 61.7786 255.029 62.2478 265.25C62.5314 271.431 63.1327 277.572 63.7385 283.704C63.7863 283.982 63.7565 284.274 63.6552 284.522C63.5538 284.77 63.3885 284.955 63.1927 285.04C62.9929 285.115 62.7799 285.077 62.5999 284.935C62.4199 284.793 62.2875 284.559 62.2313 284.282Z" fill="#F2F2F2"/>
<path d="M72.8325 264.568C74.2467 267.555 76.1906 269.985 78.477 271.625C80.7633 273.265 83.315 274.059 85.8863 273.93C92.4943 273.495 98.0033 267.086 102.962 261.001L117.631 243.004L107.923 242.358C100.941 241.894 93.78 241.461 87.1305 244.452C80.481 247.444 74.3485 254.644 73.1326 264.209" fill="#E6E6E6"/>
<path d="M59.121 290.686C64.4184 277.66 70.5631 263.183 81.5425 258.556C84.5953 257.274 87.7964 256.815 90.9733 257.203C91.9746 257.323 91.7246 259.468 90.7251 259.348C85.3998 258.734 80.0849 260.688 75.675 264.881C71.4314 268.895 68.1273 274.476 65.3308 280.394C63.6178 284.019 62.0834 287.797 60.5487 291.571C60.0583 292.777 58.6248 291.906 59.121 290.686Z" fill="#F2F2F2"/>
<path d="M50.6328 304.397C50.8113 301.523 51.5539 298.772 52.7796 296.444C54.0054 294.116 55.6674 292.3 57.5845 291.193V283.663H66.6735V291.43C68.4963 292.591 70.065 294.403 71.2197 296.681C72.3744 298.958 73.0739 301.621 73.2466 304.397L75.3838 338.921H48.4956L50.6328 304.397Z" fill="#F2F2F2"/>
<path d="M359.732 139.552L357.028 137.97L355.173 119.135H330.473L328.463 137.893L326.044 139.574C325.928 139.654 325.835 139.787 325.78 139.95C325.725 140.113 325.712 140.296 325.741 140.471C325.771 140.646 325.843 140.802 325.944 140.914C326.045 141.025 326.171 141.086 326.301 141.086H359.509C359.641 141.086 359.77 141.022 359.873 140.906C359.975 140.789 360.046 140.627 360.072 140.446C360.098 140.265 360.079 140.078 360.017 139.915C359.955 139.752 359.854 139.624 359.732 139.552Z" fill="#E6E6E6"/>
<path d="M403.626 121.641H282.292C281.655 121.639 281.045 121.286 280.596 120.66C280.146 120.033 279.894 119.185 279.894 118.3V94.5237H406.024V118.3C406.024 119.185 405.771 120.033 405.322 120.66C404.872 121.286 404.262 121.639 403.626 121.641Z" fill="#CCCCCC"/>
<path d="M406.151 105.761H279.783V4.02689C279.784 2.95925 280.089 1.93569 280.632 1.18076C281.176 0.42584 281.912 0.00119462 282.681 0H403.253C404.021 0.0011946 404.758 0.425841 405.301 1.18076C405.844 1.93569 406.15 2.95924 406.151 4.02689L406.151 105.761Z" fill="#3F3D56"/>
<path d="M398.603 98.3771H287.33C286.738 98.3762 286.17 98.0488 285.751 97.4668C285.332 96.8848 285.097 96.0957 285.096 95.2727V10.4883C285.097 9.66521 285.332 8.87607 285.751 8.29404C286.17 7.71201 286.738 7.38461 287.33 7.38367H398.603C399.196 7.38461 399.763 7.71201 400.182 8.29404C400.601 8.87607 400.837 9.66521 400.837 10.4883V95.2727C400.837 96.0957 400.601 96.8848 400.182 97.4668C399.763 98.0488 399.196 98.3762 398.603 98.3771Z" fill="white"/>
<path d="M369.295 128.293C370.014 127.371 370.869 126.679 371.801 126.266C372.732 125.853 373.718 125.729 374.688 125.902C375.658 126.075 376.589 126.542 377.415 127.27C378.241 127.997 378.942 128.967 379.469 130.112L394.52 126.393L398.377 138.553L377.069 143.389C375.627 144.492 373.943 144.821 372.337 144.315C370.732 143.808 369.316 142.5 368.357 140.64C367.399 138.779 366.965 136.494 367.138 134.219C367.311 131.943 368.079 129.835 369.295 128.293Z" fill="#FFB6B6"/>
<path d="M383.23 143.819L398.921 143.547L400.908 143.51L432.832 142.951C432.832 142.951 441.501 131.457 449.049 119.624L447.991 108.99C446.959 98.5527 443.234 88.9923 437.508 82.0876C426.696 92.1268 420.426 111.998 420.426 111.998L400.632 118.577L398.652 119.235L386.353 123.319L383.23 143.819Z" fill="#CC8F99"/>
<path d="M463.554 209.184H434.265C434.265 210.928 402.248 212.344 402.248 212.344C401.542 213.083 400.898 213.931 400.33 214.871C398.62 217.704 397.686 221.285 397.692 224.981V227.509C397.693 231.698 398.891 235.715 401.023 238.677C403.154 241.639 406.045 243.304 409.059 243.306H463.554C466.569 243.302 469.458 241.637 471.59 238.675C473.721 235.713 474.919 231.697 474.922 227.509V224.981C474.918 220.793 473.719 216.779 471.588 213.818C469.457 210.856 466.568 209.19 463.554 209.184Z" fill="#E4E4E4"/>
<path d="M442.255 242.678H430.433V337.506H442.255V242.678Z" fill="#E4E4E4"/>
<path d="M396.785 336.929C396.785 338.704 414.7 337.616 436.799 337.616C458.898 337.616 476.813 338.705 476.813 336.929C476.813 335.154 458.898 321.078 436.799 321.078C414.7 321.078 396.785 335.154 396.785 336.929Z" fill="#E4E4E4"/>
<path d="M388.843 326.094L380.045 326.093L375.859 278.932L388.845 278.933L388.843 326.094Z" fill="#FFB6B6"/>
<path d="M391.087 337.946L362.717 337.945V337.446C362.717 333.376 363.881 329.473 365.951 326.596C368.022 323.718 370.831 322.101 373.759 322.101H373.76L391.088 322.102L391.087 337.946Z" fill="#2F2E41"/>
<path d="M362.839 326.094L354.04 326.093L349.854 278.932L362.84 278.933L362.839 326.094Z" fill="#FFB6B6"/>
<path d="M365.082 337.946L336.712 337.945V337.446C336.712 333.376 337.876 329.473 339.946 326.596C342.017 323.718 344.826 322.101 347.754 322.101H347.755L365.083 322.102L365.082 337.946Z" fill="#2F2E41"/>
<path d="M441.654 54.5811C450.103 54.5811 456.953 45.063 456.953 33.3218C456.953 21.5805 450.103 12.0624 441.654 12.0624C433.205 12.0624 426.356 21.5805 426.356 33.3218C426.356 45.063 433.205 54.5811 441.654 54.5811Z" fill="#FFB6B6"/>
<path d="M466.415 178.983C466.415 178.983 471.548 216.702 452.017 221.505C432.487 226.308 404.294 229.684 404.294 229.684L391.634 311.769L374.625 309.659C374.625 309.659 376.887 210.847 382.45 203.116C388.013 195.386 423.173 172.238 423.173 172.238L466.415 178.983Z" fill="#2F2E41"/>
<path d="M428.27 163.174L419.728 175.082C419.728 175.082 358.052 188.888 355.673 208.684C352.081 238.57 347.838 303.562 347.838 303.562L366.381 301.629L373.653 227.752L403.323 218.373L437.078 192.809L428.27 163.174Z" fill="#2F2E41"/>
<path d="M456.376 20.6315C454.866 16.6719 452.947 8.78064 449.899 7.3171C448.206 6.53712 446.457 6.01919 444.682 5.77273L439.501 8.54186L442.321 5.49429C441.772 5.44884 441.223 5.41168 440.675 5.38282L437.179 7.25117L438.967 5.31817C435.709 5.27169 432.345 5.74259 429.819 8.49956C427.667 10.8499 425.534 19.7534 425.189 23.5274C424.82 27.1377 424.949 30.8126 425.569 34.356L426.454 35.5257C426.764 34.539 426.997 33.5091 427.149 32.4535C427.466 30.4812 428.076 28.6224 428.939 26.9956C429.802 25.3688 430.899 24.0096 432.161 23.0047L432.209 22.967C433.694 21.8057 435.495 21.8592 437.198 21.9444L445.285 22.3488C447.23 22.4461 449.325 22.6172 450.842 24.3131C451.806 25.5641 452.564 27.0901 453.064 28.7862C453.818 30.9002 455.291 38.8734 455.291 38.8734C455.291 38.8734 456.124 37.3684 456.523 38.4886C457.164 35.5659 457.553 32.5482 457.683 29.4983C457.811 26.4349 457.36 23.3784 456.376 20.6315Z" fill="#2F2E41"/>
<path d="M509.883 42.6578C508.907 42.7471 507.957 43.1327 507.1 43.7873C506.243 44.442 505.499 45.3498 504.922 46.4469C504.345 47.5439 503.948 48.8035 503.759 50.137C503.57 51.4704 503.593 52.8452 503.828 54.1645L491.526 66.7752L495.217 79.0333L512.41 60.8855C513.979 60.1908 515.31 58.7205 516.151 56.7532C516.992 54.786 517.284 52.4584 516.972 50.2116C516.661 47.9648 515.767 45.9549 514.46 44.5626C513.154 43.1704 511.525 42.4927 509.883 42.6578Z" fill="#FFB6B6"/>
<path d="M507.903 68.4025L477.062 116C477.062 116 462.314 109.439 450.908 102.326L445.783 80.4554C444.594 75.3817 444.086 70.047 444.286 64.7178C460.098 58.8708 478.489 80.6268 478.489 80.6268L501.574 55.4982L507.903 68.4025Z" fill="#CC8F99"/>
<path d="M435.94 182.498C430.438 179.857 424.749 177.126 418.612 176.101L418.348 176.057L418.421 175.702C424.774 144.705 423.188 124.877 420.075 95.0926C419.413 88.668 420.264 82.1182 422.5 76.4207C424.737 70.7233 428.239 66.1836 432.485 63.4794L432.522 63.4558L450.05 61.908L450.09 61.9047L462.837 67.1146C464.671 67.8696 466.276 69.4393 467.406 71.5831C468.536 73.727 469.13 76.3267 469.095 78.984C468.957 88.7793 469.25 99.7154 469.56 111.293C470.256 137.268 470.975 164.127 466.894 181.554L466.872 181.645L466.818 181.704C463.065 185.951 458.364 188.246 453.525 188.193C447.804 188.193 441.965 185.39 435.94 182.498Z" fill="#CC8F99"/>
<path d="M563.185 340H0.81503C0.598871 340 0.391568 339.881 0.23872 339.668C0.0858729 339.456 0 339.168 0 338.867C0 338.567 0.0858729 338.279 0.23872 338.067C0.391568 337.854 0.598871 337.735 0.81503 337.735H563.185C563.401 337.735 563.608 337.854 563.761 338.067C563.914 338.279 564 338.567 564 338.867C564 339.168 563.914 339.456 563.761 339.668C563.608 339.881 563.401 340 563.185 340Z" fill="#CCCCCC"/>
</g>
<defs>
<clipPath id="clip0_693_448">
<rect width="564" height="340" fill="white"/>
</clipPath>
</defs>
</svg>
