<svg width="96" height="29" viewBox="0 0 96 29" fill="none" xmlns="http://www.w3.org/2000/svg">
<g clip-path="url(#clip0_1042_566)">
<path fill-rule="evenodd" clip-rule="evenodd" d="M11.1172 1.21072L15.4554 0.486816V10.4076C16.2546 8.71007 17.3964 7.1635 19.1546 7.1635C21.7803 7.1635 23.3561 10.0301 23.3561 14.6698V27.9718H19.0405V16.9707C19.0405 14.7074 18.3326 13.5004 17.2822 13.5004C16.2318 13.5004 15.4554 14.7074 15.4554 16.9707V27.9718H11.1172V1.21072Z" fill="black"/>
<path fill-rule="evenodd" clip-rule="evenodd" d="M32.5181 17.9138V17.838C32.5181 15.311 31.3994 13.1987 29.8694 13.1987C28.2939 13.1987 27.2893 15.273 27.2893 17.7627V17.8382C27.2893 20.328 28.3853 22.4403 29.915 22.4403C31.4908 22.4403 32.5181 20.3656 32.5181 17.9138ZM23.0879 17.9138V17.838C23.0879 12.0293 25.9649 7.16333 29.915 7.16333C33.8656 7.16333 36.7198 11.954 36.7198 17.7627V17.8382C36.7198 23.6473 33.8426 28.5132 29.8694 28.5132C25.9421 28.5132 23.0879 23.7226 23.0879 17.9138Z" fill="black"/>
<path fill-rule="evenodd" clip-rule="evenodd" d="M48.2392 18.1538L46.188 7.70312H42.6259L40.7076 17.8201L39.0865 7.70312H34.8623L38.6299 27.9718H42.329L44.3841 17.4353L46.3926 27.9718L48.2392 18.1538Z" fill="black"/>
<path fill-rule="evenodd" clip-rule="evenodd" d="M67.0161 7.70312H63.317L61.2619 18.2754L59.2488 7.70312L57.4395 17.3231L59.458 27.9718H63.0199L64.9381 17.8552L66.5594 27.9718H70.7837L67.0161 7.70312Z" fill="black"/>
<path fill-rule="evenodd" clip-rule="evenodd" d="M0.296875 25.4147L1.91821 21.1137C3.33402 22.6607 4.86421 23.4526 6.14287 23.4526C6.89635 23.4526 7.26181 23.0759 7.26181 22.3589V22.2834C7.26181 21.4531 6.5539 21.1136 5.25223 20.5103C2.80884 19.4541 0.867842 18.0961 0.867842 14.0218V13.946C0.867842 9.60775 2.96878 7.1936 5.8232 7.1936C7.62726 7.1936 9.49968 8.06117 10.9155 9.57011L9.43132 14.0969C8.15244 12.8898 6.75942 12.1732 5.77742 12.1732C5.1153 12.1732 4.77284 12.5879 4.77284 13.1916V13.2675C4.77284 14.0598 5.50355 14.4366 6.78243 15.0779C9.22582 16.2097 11.1668 17.6057 11.1668 21.5664V21.6422C11.1668 26.1314 9.13444 28.4702 6.12008 28.4702C4.04193 28.4702 1.98679 27.4517 0.296875 25.4147Z" fill="black"/>
<path fill-rule="evenodd" clip-rule="evenodd" d="M82.0694 23.661V12.1947L85.3261 17.9315L82.0694 23.661ZM78.5638 17.8479C78.5638 20.5639 77.3505 22.488 75.9346 22.488C74.5418 22.488 73.3054 20.5639 73.3054 17.8479V17.7725C73.3054 15.0561 74.5418 13.1324 75.9346 13.1324C77.3505 13.1324 78.5638 15.0937 78.5638 17.7725V17.8479ZM95.7035 7.70306H90.1531L87.86 12.383L85.5671 7.70306H78.3447V10.1143C77.4683 8.56774 76.4614 7.17212 74.5887 7.17212C71.6657 7.17212 69.1426 11.2085 69.1426 17.8479V17.9233C69.1426 24.4495 71.6657 28.4862 74.6115 28.4862C76.4614 28.4862 77.4683 27.0149 78.3447 25.3174V27.9719H85.6243L87.86 23.41L90.095 27.9719H95.6455L90.6353 17.8976L95.7035 7.70306Z" fill="black"/>
<path opacity="0.75" fill-rule="evenodd" clip-rule="evenodd" d="M50.569 27.9718H46.3926L50.2045 7.70312H54.3809L50.569 27.9718Z" fill="url(#paint0_linear_1042_566)"/>
<path opacity="0.75" fill-rule="evenodd" clip-rule="evenodd" d="M55.0717 7.70312H59.2483L55.4362 27.9718H51.2598L55.0717 7.70312Z" fill="url(#paint1_linear_1042_566)"/>
</g>
<defs>
<linearGradient id="paint0_linear_1042_566" x1="135.946" y1="74.2091" x2="135.946" y2="19.6934" gradientUnits="userSpaceOnUse">
<stop stop-color="#C44A88"/>
<stop offset="1" stop-color="#E43F8C"/>
</linearGradient>
<linearGradient id="paint1_linear_1042_566" x1="149.124" y1="19.6934" x2="149.124" y2="74.2091" gradientUnits="userSpaceOnUse">
<stop stop-color="#658D9D"/>
<stop offset="1" stop-color="#377B8B"/>
</linearGradient>
<clipPath id="clip0_1042_566">
<rect width="96" height="29" fill="white"/>
</clipPath>
</defs>
</svg>
