<svg width="97" height="29" viewBox="0 0 97 29" fill="none" xmlns="http://www.w3.org/2000/svg">
<g clip-path="url(#clip0_1042_579)">
<path fill-rule="evenodd" clip-rule="evenodd" d="M30.0161 14.5001C30.0161 18.4899 28.5752 21.8953 25.6936 24.7165C22.8119 27.5377 19.3334 28.9484 15.258 28.9484C11.1828 28.9484 7.70424 27.5377 4.82252 24.7165C1.94091 21.8953 0.5 18.4899 0.5 14.5001C0.5 10.5102 1.94091 7.10483 4.82252 4.28362C7.70434 1.46231 11.1828 0.0517578 15.2582 0.0517578C19.3335 0.0517578 22.812 1.46241 25.6937 4.28362C28.5754 7.10483 30.0162 10.5102 30.0162 14.5001H30.0161Z" fill="#FF0000"/>
<path fill-rule="evenodd" clip-rule="evenodd" d="M24.113 14.5C24.113 16.8939 23.2484 18.9372 21.5194 20.6299C19.7905 22.3226 17.7034 23.169 15.2582 23.169C12.8129 23.169 10.7258 22.3226 8.99685 20.6299C7.26787 18.9372 6.40332 16.8939 6.40332 14.5C6.40332 12.1062 7.26787 10.0628 8.99685 8.37017C10.7258 6.67743 12.813 5.83105 15.2582 5.83105C17.7034 5.83105 19.7905 6.67743 21.5194 8.37017C23.2484 10.0628 24.113 12.1062 24.113 14.5Z" fill="#FF0000"/>
<path fill-rule="evenodd" clip-rule="evenodd" d="M24.113 14.5C24.113 16.8939 23.2484 18.9372 21.5194 20.6299C19.7905 22.3226 17.7034 23.169 15.2582 23.169C12.8129 23.169 10.7258 22.3226 8.99685 20.6299C7.26787 18.9372 6.40332 16.8939 6.40332 14.5C6.40332 12.1062 7.26787 10.0628 8.99685 8.37017C10.7258 6.67743 12.813 5.83105 15.2582 5.83105C17.7034 5.83105 19.7905 6.67743 21.5194 8.37017C23.2484 10.0628 24.113 12.1062 24.113 14.5Z" stroke="#E9EFF5" stroke-width="50.3413"/>
<path fill-rule="evenodd" clip-rule="evenodd" d="M12.3066 18.7682L19.9729 14.5012L12.3066 10.2317V18.7682ZM45.8563 11.6609C45.1548 15.0959 44.6217 19.2895 44.3418 21.021H44.1443C43.9177 19.2367 43.3845 15.0707 42.6576 11.6898L40.8607 3.27489H35.3839V25.9706H38.7801V7.26022L39.1158 9.00719L42.569 25.967H45.9666L49.3629 9.00719L49.7263 7.25052V25.9695H53.124V3.27363H47.5952L45.8564 11.6609H45.8563ZM62.3071 22.5621C61.9968 23.1846 61.3256 23.6168 60.6495 23.6168C59.8643 23.6168 59.5541 23.022 59.5541 21.5627V9.38783H55.6794V21.7771C55.6794 24.8354 56.7166 26.2393 59.0211 26.2393C60.5914 26.2393 61.854 25.5626 62.7264 23.9408H62.8112L63.1468 25.9683H66.1784V9.38888H62.3035V22.5608H62.3072L62.3071 22.5621ZM73.6748 15.9327C72.4111 15.0393 71.626 14.4446 71.626 13.1467C71.626 12.2279 72.0743 11.7138 73.1406 11.7138C74.237 11.7138 74.6018 12.4423 74.6272 14.9334L77.8854 14.7998C78.1374 10.7711 76.761 9.09271 73.1963 9.09271C69.8848 9.09271 68.2551 10.5256 68.2551 13.473C68.2551 16.1507 69.6037 17.368 71.7932 18.9656C73.6748 20.3732 74.7702 21.157 74.7702 22.2936C74.7702 23.1605 74.208 23.7541 73.2253 23.7541C72.0743 23.7541 71.3993 22.6982 71.5714 20.8584L68.2878 20.9114C67.7801 24.3452 69.216 26.3475 73.0314 26.3475C76.3732 26.3475 78.1144 24.8594 78.1144 21.8854C78.1108 19.18 76.7088 18.0963 73.6748 15.9327ZM83.9498 9.38783H80.2433V25.967H83.951V9.38888L83.9498 9.38783ZM82.1237 2.84033C80.6941 2.84033 80.0179 3.35445 80.0179 5.14116C80.0179 6.98095 80.6891 7.43959 82.125 7.43959C83.585 7.43959 84.2308 6.97855 84.2308 5.14116C84.2308 3.43872 83.585 2.84033 82.1237 2.84033ZM96.4129 19.9904L93.0166 19.8279C93.0166 22.7489 92.681 23.6951 91.5311 23.6951C90.3801 23.6951 90.1825 22.6393 90.1825 19.2041V15.9895C90.1825 12.6603 90.4091 11.608 91.5602 11.608C92.6264 11.608 92.9076 12.6073 92.9076 15.6933L96.2735 15.4789C96.5002 12.9095 96.1609 11.1504 95.1237 10.1511C94.3639 9.41901 93.2141 9.07112 91.6147 9.07112C87.8537 9.07112 86.3089 11.0192 86.3089 16.4806V18.8068C86.3089 24.4333 87.6271 26.2453 91.4754 26.2453C93.1038 26.2453 94.2258 25.9203 94.9844 25.2171C96.0773 24.237 96.4977 22.5622 96.4141 19.9903L96.4129 19.9904Z" fill="#E9EFF5"/>
</g>
<defs>
<clipPath id="clip0_1042_579">
<rect width="96" height="29" fill="white" transform="translate(0.5)"/>
</clipPath>
</defs>
</svg>
