<svg width="28" height="26" viewBox="0 0 28 26" fill="none" xmlns="http://www.w3.org/2000/svg">
<g clip-path="url(#clip0_154_548)">
<path d="M25.3333 13.2832C25.3333 20.1924 20.303 25.1094 12.8743 25.1094C5.75191 25.1094 0 19.6992 0 13C0 6.30078 5.75191 0.890625 12.8743 0.890625C16.3421 0.890625 19.2596 2.08691 21.5074 4.05957L18.0033 7.22852C13.4194 3.06836 4.89536 6.19336 4.89536 13C4.89536 17.2236 8.48251 20.6465 12.8743 20.6465C17.9721 20.6465 19.8825 17.209 20.1836 15.4268H12.8743V11.2617H25.1309C25.2503 11.8818 25.3333 12.4775 25.3333 13.2832Z" fill="white"/>
</g>
<defs>
<clipPath id="clip0_154_548">
<rect width="28" height="25" fill="white" transform="translate(0 0.5)"/>
</clipPath>
</defs>
</svg>
