<svg width="97" height="29" viewBox="0 0 97 29" fill="none" xmlns="http://www.w3.org/2000/svg">
<g clip-path="url(#clip0_1042_552)">
<path d="M48.0625 29.0001V28.953C48.1104 28.8942 48.1943 28.8589 48.2662 28.8706C48.6138 28.8589 48.9493 28.8589 49.2969 28.8706C49.3688 28.8706 49.4527 28.8942 49.5006 28.953V29.0001H48.0625Z" fill="#D1EFFA"/>
<path d="M49.5003 28.953C49.021 28.9412 48.5416 28.9412 48.0622 28.953C47.4031 28.9177 46.7439 28.8941 46.0848 28.847C44.335 28.7176 42.5973 28.4587 40.8955 28.0703C35.0112 26.7285 29.8459 24.0333 25.3397 20.1141C24.9203 19.7492 24.5248 19.3726 24.1173 18.996C24.0215 18.9136 23.9376 18.7959 23.8896 18.6782C23.8177 18.5134 23.8537 18.3369 23.9735 18.2074C24.0934 18.078 24.2851 18.0309 24.4529 18.1015C24.5608 18.1486 24.6686 18.1957 24.7645 18.2545C29.0669 20.8673 33.7648 22.774 38.6904 23.9039C40.3442 24.2805 42.0101 24.5747 43.6879 24.7866C46.0968 25.0808 48.5296 25.1867 50.9504 25.1044C52.2567 25.069 53.5511 24.9513 54.8454 24.7866C57.8655 24.41 60.8496 23.7391 63.7378 22.7975C65.2598 22.3032 66.7459 21.7383 68.196 21.0792C68.4117 20.9615 68.6754 20.9262 68.9151 20.985C69.3106 21.0792 69.5503 21.4794 69.4544 21.8677C69.4424 21.9148 69.4184 21.9737 69.3945 22.0207C69.2986 22.1973 69.1668 22.3503 68.999 22.468C67.6208 23.5272 66.1347 24.457 64.5647 25.2338C61.6046 26.705 58.4407 27.7525 55.1809 28.3527C53.2994 28.6823 51.4059 28.8824 49.5003 28.953ZM31.7514 5.09624C32.051 4.91969 32.3626 4.73138 32.6862 4.56661C33.5251 4.14291 34.4599 3.93106 35.4067 3.97814C36.0898 4.01344 36.713 4.20176 37.1923 4.69607C37.6477 5.15508 37.8155 5.72002 37.8635 6.33203C37.8754 6.4615 37.8754 6.59096 37.8754 6.73219V12.8288C37.8754 13.3584 37.8035 13.429 37.2642 13.429H35.8021C35.7063 13.429 35.6104 13.429 35.5145 13.4173C35.3707 13.4055 35.2509 13.2878 35.2269 13.1466C35.2029 13.0171 35.2029 12.8876 35.2029 12.7582V7.3089C35.2149 7.08528 35.1909 6.87343 35.131 6.66158C35.0351 6.29672 34.6996 6.03779 34.3161 6.01426C33.609 5.96718 32.9019 6.10841 32.2548 6.40265C32.1589 6.42619 32.099 6.52034 32.1109 6.6145V12.8052C32.1109 12.9229 32.1109 13.0289 32.087 13.1466C32.087 13.3113 31.9551 13.429 31.7874 13.429C31.6076 13.4408 31.4278 13.4408 31.2361 13.4408H29.9657C29.5223 13.4408 29.4264 13.3349 29.4264 12.8994V7.33244C29.4264 7.13236 29.4144 6.92051 29.3665 6.72042C29.2826 6.32026 28.9351 6.03779 28.5276 6.01426C27.8085 5.96718 27.0775 6.10841 26.4303 6.41442C26.3345 6.43796 26.2745 6.54388 26.2985 6.63804V12.9112C26.2985 13.3466 26.2026 13.4408 25.7592 13.4408H24.1533C23.7338 13.4408 23.626 13.3231 23.626 12.9229V4.75492C23.626 4.66076 23.638 4.56661 23.6619 4.47245C23.7099 4.33122 23.8537 4.24883 23.9975 4.24883H25.4955C25.7113 4.24883 25.8431 4.3783 25.915 4.57838C25.9749 4.74315 26.0109 4.89615 26.0708 5.0727C26.1906 5.0727 26.2625 4.99031 26.3464 4.94323C27.0056 4.54307 27.7007 4.20176 28.4797 4.06052C29.0789 3.94283 29.6781 3.94283 30.2773 4.06052C30.8406 4.17822 31.3439 4.50776 31.6675 4.97854C31.6915 5.01385 31.7155 5.03739 31.7394 5.06093C31.7274 5.0727 31.7394 5.0727 31.7514 5.09624Z" fill="#00A8E1"/>
<path d="M56.5958 10.9573C56.6677 10.7219 56.7396 10.4983 56.8115 10.2629C57.3628 8.43862 57.9141 6.62612 58.4653 4.80186L58.5373 4.59C58.5972 4.37815 58.8009 4.24869 59.0166 4.24869H60.8383C61.2937 4.24869 61.3895 4.37815 61.2337 4.80186L60.5147 6.6732C59.7117 8.72109 58.9088 10.7808 58.1058 12.8286C58.0818 12.8993 58.0459 12.9699 58.0219 13.0405C57.938 13.2877 57.6864 13.4524 57.4227 13.4289C56.8954 13.4171 56.3681 13.4171 55.8408 13.4289C55.4692 13.4407 55.2535 13.2759 55.1217 12.9463C54.8221 12.1695 54.5105 11.381 54.2109 10.6042C53.4918 8.7564 52.7608 6.90859 52.0417 5.04901C51.9698 4.90778 51.9219 4.74301 51.8859 4.59C51.8499 4.35462 51.9338 4.23692 52.1735 4.23692C52.8566 4.22515 53.5398 4.23692 54.2109 4.23692C54.4985 4.23692 54.6303 4.42523 54.7022 4.67239C54.8341 5.11963 54.9659 5.57864 55.1097 6.02588C55.6011 7.66184 56.0804 9.30957 56.5718 10.9455C56.5598 10.9573 56.5718 10.9573 56.5958 10.9573Z" fill="#232F3E"/>
<path d="M14.0385 5.54344C14.1224 5.5199 14.1943 5.47282 14.2422 5.4022C14.4579 5.19035 14.6856 4.99027 14.9253 4.80196C15.5485 4.33118 16.3275 4.09579 17.1065 4.15464C17.4181 4.16641 17.5259 4.26056 17.5499 4.5548C17.5739 4.95496 17.5619 5.3669 17.5619 5.76706C17.5739 5.93183 17.5619 6.08483 17.5379 6.24961C17.49 6.46146 17.4061 6.54384 17.1904 6.56738C17.0226 6.57915 16.8668 6.56738 16.699 6.55561C15.8961 6.485 15.1171 6.638 14.3621 6.88516C14.1943 6.94401 14.1943 7.0617 14.1943 7.19116V12.8405C14.1943 12.9464 14.1943 13.0406 14.1823 13.1465C14.1703 13.2995 14.0505 13.4172 13.8947 13.4172C13.8108 13.429 13.7149 13.429 13.631 13.429H12.073C11.9891 13.429 11.8933 13.429 11.8094 13.4172C11.6536 13.4055 11.5337 13.276 11.5217 13.123C11.5098 13.0288 11.5098 12.9347 11.5098 12.8405V4.83727C11.5098 4.29587 11.5697 4.23703 12.121 4.23703H13.2715C13.5831 4.23703 13.7269 4.34295 13.8108 4.63719C13.8947 4.93142 13.9666 5.22566 14.0385 5.54344ZM70.1016 17.4777C70.8926 17.5012 71.6715 17.5483 72.4385 17.7484C72.6543 17.8072 72.858 17.8779 73.0617 17.972C73.3374 18.0779 73.5171 18.3369 73.5531 18.6193C73.601 18.9489 73.613 19.2902 73.589 19.6315C73.4332 21.6441 72.7981 23.5861 71.7434 25.3162C71.3599 25.9399 70.8926 26.5049 70.3533 26.9992C70.2454 27.1051 70.1136 27.1875 69.9697 27.2346C69.742 27.2934 69.5982 27.1757 69.5862 26.9521C69.5982 26.8344 69.6222 26.7167 69.6701 26.599C70.0896 25.4927 70.4971 24.3981 70.8206 23.2565C71.0124 22.6327 71.1442 21.9972 71.2281 21.3498C71.2521 21.1145 71.2641 20.8791 71.2401 20.6437C71.2281 20.2435 70.9645 19.9022 70.569 19.7845C70.1975 19.6668 69.814 19.5962 69.4185 19.5727C68.3159 19.5256 67.2133 19.5727 66.1228 19.7139L64.6726 19.8904C64.5168 19.9022 64.373 19.8904 64.2891 19.7492C64.2052 19.608 64.2412 19.4667 64.3251 19.3255C64.421 19.196 64.5408 19.0783 64.6846 18.996C65.5715 18.3722 66.5662 17.9955 67.6208 17.7484C68.4357 17.5836 69.2627 17.5012 70.1016 17.4777Z" fill="#00A8E1"/>
<path d="M65.08 8.83888V13.0759C65.0561 13.3113 64.9482 13.4172 64.7085 13.429C64.0613 13.4407 63.4262 13.4407 62.779 13.429C62.5393 13.429 62.4315 13.3113 62.4075 13.0877C62.3955 13.017 62.3955 12.9347 62.3955 12.864V4.71956C62.4075 4.3547 62.5034 4.24878 62.8749 4.24878H64.6006C64.9722 4.24878 65.08 4.3547 65.08 4.71956V8.83888Z" fill="#232F3E"/>
<path d="M18.7128 8.8153V4.63713C18.7247 4.35466 18.8326 4.24874 19.1202 4.23697C19.7434 4.2252 20.3666 4.2252 20.9898 4.23697C21.2654 4.23697 21.3493 4.31936 21.3733 4.59005C21.3853 4.69598 21.3853 4.79013 21.3853 4.89606V12.7345C21.3853 12.864 21.3733 12.9935 21.3613 13.1229C21.3493 13.2759 21.2295 13.3819 21.0737 13.3936C21.0018 13.4054 20.9419 13.4054 20.8699 13.4054H19.2041C19.1442 13.4054 19.0963 13.4054 19.0363 13.3936C18.8686 13.3819 18.7247 13.2524 18.7128 13.0876C18.7008 12.9935 18.7008 12.8993 18.7008 12.8052C18.7128 11.4987 18.7128 10.157 18.7128 8.8153ZM20.1029 0.0234953C20.2947 0.0117258 20.4864 0.0470343 20.6662 0.105882C21.3134 0.317732 21.6489 0.870898 21.589 1.58884C21.5411 2.20085 21.0737 2.69517 20.4505 2.78932C20.1868 2.8364 19.9112 2.8364 19.6475 2.78932C18.9644 2.65986 18.4611 2.16554 18.509 1.31814C18.5809 0.482505 19.1442 0.0234953 20.1029 0.0234953Z" fill="#00A8E1"/>
<path d="M63.7506 0.0235767C63.9903 3.76888e-05 64.23 0.0471156 64.4577 0.141271C64.9251 0.317814 65.2486 0.741515 65.2726 1.23583C65.3685 2.30686 64.6374 2.84825 63.6667 2.82471C63.5349 2.82471 63.403 2.80117 63.2712 2.77764C62.5282 2.60109 62.1447 2.03616 62.2166 1.22406C62.2765 0.576742 62.7918 0.0941935 63.4989 0.0353461C63.5828 0.0235767 63.6667 0.0118072 63.7506 0.0235767Z" fill="#232F3E"/>
<path d="M9.73599 7.8502C9.68805 7.23819 9.52027 6.63794 9.2686 6.08478C8.77724 5.0726 8.02222 4.33112 6.87172 4.0722C5.55343 3.78973 4.36697 4.0722 3.28838 4.86075C3.21647 4.93137 3.13258 4.99021 3.0367 5.03729C3.01273 5.02552 2.98877 5.01375 2.98877 5.00198C2.95281 4.88429 2.92884 4.76659 2.89289 4.6489C2.79702 4.35466 2.67717 4.24874 2.35359 4.24874C1.99406 4.24874 1.62254 4.26051 1.26301 4.24874C0.987369 4.23697 0.735696 4.27228 0.543945 4.48413C0.543945 8.60345 0.543945 12.7345 0.55593 16.8421C0.711727 17.0892 0.951415 17.1363 1.22706 17.1245C1.6585 17.1128 2.08993 17.1245 2.52137 17.1245C3.27639 17.1245 3.27639 17.1245 3.27639 16.3948V13.0405C3.27639 12.9582 3.24044 12.864 3.32433 12.7934C3.92355 13.2524 4.6546 13.5349 5.40962 13.6055C6.46425 13.7114 7.423 13.4525 8.22596 12.7463C8.81319 12.2167 9.24463 11.534 9.47233 10.7808C9.79591 9.8157 9.81988 8.83884 9.73599 7.8502ZM6.87172 10.2865C6.78783 10.6513 6.59608 10.9809 6.32043 11.228C6.00884 11.487 5.62534 11.64 5.21787 11.64C4.60666 11.6753 4.00744 11.5458 3.46814 11.2633C3.33631 11.2045 3.25242 11.075 3.26441 10.9338V8.80353C3.26441 8.09736 3.27639 7.39119 3.26441 6.68502C3.25242 6.52025 3.3483 6.37901 3.5041 6.32017C4.16324 6.01416 4.84635 5.87293 5.56542 6.01416C6.06876 6.08478 6.5002 6.40255 6.70394 6.86156C6.8837 7.23819 6.99156 7.65012 7.01553 8.06205C7.08744 8.8153 7.08744 9.56854 6.87172 10.2865Z" fill="#00A8E1"/>
<path d="M96.4313 9.68631C96.4313 9.67454 96.4313 9.67454 96.4313 9.68631V9.68631ZM96.4433 8.1092V8.15628C96.3953 8.1092 96.3714 8.03859 96.3953 7.97974V7.88558C96.3953 7.88558 96.3953 7.87381 96.4073 7.87381H96.3953V7.75612H96.4193C96.4193 7.74435 96.4073 7.74435 96.4073 7.73258C96.3834 7.50896 96.3354 7.28534 96.2755 7.07349C95.8321 5.51992 94.8374 4.49597 93.2195 4.09581C92.4645 3.91927 91.6975 3.89573 90.9304 4.01342C89.3126 4.24881 88.1501 5.09622 87.5868 6.60271C87.0355 8.03859 87.0475 9.6157 87.5988 11.0516C88.0782 12.358 89.0369 13.1819 90.4151 13.5232C91.1462 13.6997 91.9132 13.7468 92.6682 13.6409C95.1849 13.3466 96.2276 11.4753 96.3953 9.85109H96.3834V9.68631C96.3714 9.6157 96.3594 9.55685 96.4313 9.50977V9.53331C96.4313 9.52154 96.4433 9.498 96.4553 9.48623V8.13274C96.4553 8.12097 96.4433 8.12097 96.4433 8.1092ZM93.567 10.3454C93.4951 10.5926 93.3873 10.8162 93.2315 11.028C92.9678 11.3929 92.5483 11.6283 92.0929 11.6636C91.8652 11.6871 91.6375 11.6871 91.4098 11.64C90.9065 11.5459 90.487 11.2163 90.2833 10.7573C90.1035 10.3925 89.9957 9.99232 89.9597 9.59216C89.8998 8.89776 89.8878 8.20336 90.0556 7.52073C90.1155 7.25003 90.2353 6.97933 90.3792 6.74394C90.6428 6.32024 91.0982 6.04954 91.6016 6.01424C91.8293 5.9907 92.057 5.9907 92.2847 6.03778C92.7641 6.13193 93.1595 6.43794 93.3753 6.87341C93.579 7.28534 93.6988 7.74435 93.7228 8.20336C93.7348 8.41521 93.7468 8.62706 93.7348 8.83891C93.7708 9.35677 93.7108 9.86286 93.567 10.3454ZM75.4346 0.105957H73.7688C73.3134 0.105957 73.2295 0.188343 73.2295 0.635584V4.4489C73.2295 4.53128 73.2654 4.61367 73.2055 4.69605C73.0976 4.68429 73.0377 4.61367 72.9538 4.56659C71.7074 3.84865 70.4011 3.71919 69.0829 4.31943C68.1601 4.74313 67.5848 5.50815 67.2133 6.4144C66.8538 7.28534 66.7699 8.20336 66.7938 9.13315C66.7938 10.0041 66.9976 10.8633 67.3931 11.64C67.8485 12.4992 68.5076 13.1583 69.4664 13.4408C70.7727 13.8409 71.9951 13.6409 73.1096 12.8288C73.1935 12.7817 73.2414 12.6993 73.3493 12.6758C73.4092 12.8052 73.4572 12.9465 73.4811 13.0877C73.5291 13.276 73.6969 13.4055 73.9006 13.4055H74.1882C74.6197 13.4055 75.0391 13.4172 75.4586 13.4055C75.7941 13.4055 75.89 13.2995 75.902 12.9582V0.553197C75.89 0.188343 75.7941 0.105957 75.4346 0.105957ZM73.2414 8.7683V10.9103C73.2654 11.0516 73.1815 11.181 73.0497 11.2399C72.4744 11.5577 71.8153 11.6871 71.1681 11.593C70.6169 11.5341 70.1375 11.2046 69.8858 10.722C69.6941 10.3454 69.5862 9.94524 69.5502 9.53331C69.4544 8.79183 69.5143 8.03859 69.6941 7.32065C69.754 7.12057 69.8259 6.93226 69.9337 6.74394C70.1854 6.28493 70.6648 5.9907 71.1921 5.95539C71.8273 5.89654 72.4625 6.01424 73.0377 6.27317C73.1815 6.32024 73.2654 6.46148 73.2534 6.61448C73.2295 7.34419 73.2414 8.05036 73.2414 8.7683Z" fill="#232F3E"/>
<path d="M42.2504 9.58044C43.1492 9.74521 44.072 9.75698 44.9709 9.61575C45.4982 9.54513 46.0015 9.39213 46.4689 9.14497C47.0082 8.83896 47.4037 8.41526 47.5715 7.82679C47.9909 6.34383 47.3438 4.84911 45.7738 4.29595C45.0068 4.04879 44.1919 3.9664 43.3889 4.07232C41.4954 4.28418 40.261 5.30812 39.6977 7.08531C39.3022 8.29757 39.3502 9.53336 39.6738 10.7574C40.0932 12.3227 41.1478 13.2525 42.7418 13.5821C43.6526 13.7821 44.5754 13.7468 45.4862 13.6056C45.9656 13.5232 46.4449 13.4055 46.9004 13.229C47.176 13.1231 47.3198 12.9583 47.3078 12.6523C47.2958 12.3698 47.3078 12.0756 47.3078 11.7813C47.3078 11.4282 47.164 11.3223 46.8165 11.4047C46.4689 11.4871 46.1334 11.5577 45.7858 11.6283C45.0428 11.7813 44.2758 11.7813 43.5327 11.6519C42.5141 11.4518 41.8549 10.5926 41.9148 9.53336C42.0227 9.54513 42.1425 9.5569 42.2504 9.58044ZM41.9508 7.77971C41.9867 7.49724 42.0706 7.22655 42.1785 6.96762C42.538 6.10844 43.293 5.81421 44.0601 5.86129C44.2758 5.87306 44.4915 5.92013 44.6952 6.00252C45.0068 6.13198 45.2106 6.41445 45.2465 6.744C45.2825 6.94408 45.2705 7.15593 45.2106 7.35601C45.0667 7.77971 44.7192 7.95625 44.2997 8.03864C44.0481 8.09749 43.7844 8.12103 43.5208 8.09749C43.0534 8.09749 42.574 8.06218 42.1066 7.99156C41.9268 7.96802 41.9268 7.96802 41.9508 7.77971Z" fill="#00A8E1"/>
<path d="M82.6731 9.69793C83.3682 9.65085 84.0633 9.52139 84.6865 9.19184C85.3217 8.88584 85.7651 8.30913 85.8969 7.6265C85.9808 7.2028 85.9808 6.75556 85.8849 6.33186C85.6332 5.27261 84.9501 4.61352 83.9195 4.2722C83.3442 4.09566 82.733 4.02504 82.1338 4.04858C80.1204 4.09566 78.5864 5.09606 77.9632 7.07334C77.5438 8.37975 77.6037 9.7097 78.0112 11.0161C78.4306 12.3578 79.3894 13.1699 80.7556 13.5348C81.3428 13.676 81.954 13.7349 82.5533 13.7113C83.4281 13.6996 84.303 13.5348 85.1299 13.2288C85.4774 13.0993 85.5613 12.9816 85.5613 12.6168V11.7694C85.5494 11.428 85.4055 11.3104 85.058 11.3927C84.7943 11.4634 84.5427 11.5222 84.279 11.581C83.4761 11.7694 82.6371 11.8047 81.8222 11.6634C81.0073 11.5104 80.456 11.0514 80.2403 10.2511C80.1803 10.0157 80.1324 9.78032 80.1084 9.53316C80.1684 9.53316 80.2283 9.53316 80.2762 9.5567C81.0672 9.69793 81.8701 9.75678 82.6731 9.69793ZM80.1684 7.81482C80.2522 7.35581 80.3601 6.90856 80.6477 6.53194C81.0912 5.95524 81.7024 5.79046 82.3975 5.86108C82.4574 5.86108 82.5053 5.88462 82.5652 5.88462C83.4042 6.01408 83.6079 6.67317 83.4521 7.30873C83.3322 7.77951 82.9368 7.95605 82.4933 8.03843C82.2536 8.08551 82.002 8.10905 81.7503 8.09728C81.2589 8.08551 80.7796 8.0502 80.3002 7.97959C80.1923 7.96782 80.1444 7.92074 80.1684 7.81482Z" fill="#232F3E"/>
</g>
<defs>
<clipPath id="clip0_1042_552">
<rect width="96" height="29" fill="white" transform="translate(0.5)"/>
</clipPath>
</defs>
</svg>
