<svg width="96" height="29" viewBox="0 0 96 29" fill="none" xmlns="http://www.w3.org/2000/svg">
<path d="M63.8732 0.5V20.8311C66.1906 20.9477 68.502 21.0888 70.807 21.2552V25.5656C67.1633 25.3028 63.5044 25.1022 59.8303 24.9654V0.5H63.8732ZM96 0.502409L90.7355 13.7099L95.9987 28.4074L95.9928 28.4102C94.4597 28.1735 92.9246 27.9501 91.3849 27.7359L88.4293 19.4868L85.4456 26.9701C84.0316 26.8012 82.6156 26.6413 81.1964 26.4915L86.3286 13.6216L81.6285 0.502409H86.002L88.6336 7.84407L91.5597 0.502409H96ZM45.955 24.7517L45.9548 0.502331H57.2405V4.85151H49.9978V10.4882H55.4779V14.7987H49.9978V24.7507L45.955 24.7517ZM30.8588 4.85187L30.8586 0.502104H43.3632V4.85156H39.1323V24.8697C37.7828 24.9079 36.4348 24.9532 35.0896 25.0081V4.85187H30.8588ZM17.0378 26.2613V0.502834H28.2671V4.85201H21.0801V10.7433C22.7312 10.7204 25.0789 10.6945 26.5395 10.6983V15.0091C24.7112 14.9845 22.6474 15.0363 21.0801 15.0532V21.5791C23.4688 21.3758 25.8647 21.1979 28.2671 21.0477V25.3586C24.507 25.593 20.7638 25.8949 17.0378 26.2613ZM9.10707 16.2965L9.10681 0.502125H13.1497V26.6676C11.6718 26.8321 10.1967 27.0072 8.72412 27.192L4.04267 12.6383V27.8154C2.69245 28.0057 1.34498 28.2041 0 28.4112V0.502409H3.84209L9.10707 16.2965ZM74.1422 25.8256V0.502437H78.1852V26.1869C76.8393 26.0573 75.4921 25.9374 74.1422 25.8256Z" fill="#DB202C"/>
</svg>
