<svg width="32" height="30" viewBox="0 0 32 30" fill="none" xmlns="http://www.w3.org/2000/svg">
<path d="M12.8004 28.2631C11.4628 28.2631 10.2761 28.1551 9.24039 27.9389C8.20519 27.7208 7.25799 27.2227 6.40039 26.7894V23.3116C7.28359 23.7458 8.24306 24.1314 9.27879 24.4684C10.3391 24.7828 11.5257 24.9395 12.8388 24.9385C13.8059 24.9502 14.7675 24.8035 15.6788 24.5052C16.5152 24.2467 17.2519 23.7694 17.7988 23.1318C18.33 22.505 18.5951 21.7097 18.594 20.7459C18.5924 19.3002 18.266 18.976 17.61 18.3246C16.954 17.6497 15.906 16.903 14.466 16.0846C13.5583 15.5541 12.738 14.9877 12.0052 14.3854C11.2909 13.7761 10.7008 13.0539 10.2628 12.253C9.83399 11.4337 9.61959 10.4581 9.61959 9.32629C9.61959 7.76026 10.0111 6.41085 10.794 5.27808C11.5963 4.15019 12.723 3.24971 14.0484 2.67703C15.4137 2.05022 16.9417 1.73682 18.6324 1.73682C20.0468 1.73682 21.3092 1.88124 22.4196 2.17008C23.53 2.43534 24.5903 2.82096 25.6004 3.32692L24.0852 6.47176C23.2601 6.08525 22.3977 5.77048 21.5092 5.53155C20.5824 5.24346 19.6106 5.09711 18.6324 5.09829C17.2436 5.09829 16.1076 5.44706 15.2244 6.14461C14.3412 6.84411 13.8991 7.8084 13.898 9.03745C13.898 10.0975 14.2009 10.9164 14.8068 11.4941C15.4383 12.0492 16.3599 12.6878 17.5716 13.4099C18.6329 14.0357 19.5545 14.6743 20.3364 15.3257C21.1193 15.9515 21.7124 16.6741 22.1156 17.4934C22.5455 18.2892 22.7604 19.253 22.7604 20.3848C22.7604 22.1189 22.3311 23.5763 21.4724 24.7572C20.6404 25.9146 19.4665 26.7939 17.9508 27.3951C16.4617 27.9748 14.7449 28.2641 12.8004 28.2631Z" fill="#1DBFDC"/>
</svg>
